<svg width="689" height="248" viewBox="0 0 689 248" fill="none" xmlns="http://www.w3.org/2000/svg">
<path d="M71.6079 201.158C66.5725 201.158 61.9621 200.341 57.7768 198.706C53.5915 197.071 49.9294 194.782 46.7904 191.839C43.6514 188.831 41.1337 185.234 39.2372 181.049H38.6487V199H10.0055V57.4517H38.6487V112.09H39.2372C41.1991 107.839 43.7495 104.209 46.8885 101.201C50.0275 98.1276 53.6896 95.7734 57.8749 94.1385C62.1256 92.5036 66.736 91.6862 71.706 91.6862C80.5344 91.6862 88.1203 93.877 94.4636 98.2584C100.872 102.575 105.81 108.82 109.276 116.994C112.742 125.103 114.475 134.88 114.475 146.324V146.422C114.475 157.801 112.742 167.578 109.276 175.752C105.81 183.926 100.872 190.204 94.4636 194.586C88.0549 198.967 80.4363 201.158 71.6079 201.158ZM62.0929 177.42C66.8668 177.42 70.9867 176.177 74.4526 173.692C77.9186 171.142 80.5998 167.545 82.4963 162.902C84.3927 158.259 85.341 152.765 85.341 146.422V146.324C85.341 139.915 84.3927 134.422 82.4963 129.844C80.5998 125.201 77.8859 121.637 74.3545 119.152C70.8886 116.667 66.8014 115.425 62.0929 115.425C57.4498 115.425 53.3626 116.7 49.8313 119.25C46.3653 121.735 43.6187 125.299 41.5915 129.942C39.6296 134.52 38.6487 139.981 38.6487 146.324V146.422C38.6487 152.765 39.6296 158.259 41.5915 162.902C43.5533 167.545 46.2999 171.142 49.8313 173.692C53.3626 176.177 57.4498 177.42 62.0929 177.42ZM129.875 199V57.4517H158.518V111.991H159.107C161.854 105.452 165.941 100.449 171.369 96.9832C176.862 93.4519 183.532 91.6862 191.38 91.6862C199.031 91.6862 205.603 93.3865 211.096 96.787C216.589 100.122 220.807 104.863 223.75 111.011C226.758 117.158 228.263 124.482 228.263 132.983V199H199.619V138.869C199.619 131.545 197.854 125.823 194.322 121.703C190.856 117.517 185.854 115.425 179.314 115.425C175.129 115.425 171.467 116.438 168.328 118.466C165.254 120.427 162.834 123.174 161.069 126.705C159.369 130.171 158.518 134.193 158.518 138.771V199H129.875ZM273.876 199L237.483 93.8443H268.088L290.061 173.692H290.65L312.328 93.8443H342.247L306.148 199H273.876ZM352.252 199V93.8443H380.895V112.188H381.484C383.053 105.714 385.898 100.678 390.018 97.0813C394.138 93.4846 399.271 91.6862 405.419 91.6862C406.988 91.6862 408.492 91.7843 409.931 91.9805C411.37 92.1767 412.612 92.4383 413.658 92.7652V117.975C412.481 117.517 410.977 117.158 409.146 116.896C407.315 116.569 405.353 116.406 403.261 116.406C398.552 116.406 394.53 117.321 391.195 119.152C387.86 120.983 385.309 123.665 383.544 127.196C381.778 130.727 380.895 135.043 380.895 140.144V199H352.252Z" fill="black"/>
<path d="M597.898 150.542C606.757 155.052 623.198 159.275 631.931 157.999C654.572 154.675 670.905 141.594 680.806 123.463C684.993 115.791 685.352 100.248 678.632 98.5585C670.115 96.4202 659.998 98.0913 644.294 105.512C628.32 113.059 624.474 124.991 605.661 115.808" fill="#694D42"/>
<path opacity="0.44" d="M602.135 134.927C605.423 137.119 605.891 138.305 608.604 141.18C613.941 146.858 626.555 147.164 628.998 147.2C643.535 147.398 650.561 143.876 659.941 137.676C669.32 131.477 678.143 117.929 679.724 111.208C680.82 106.573 681.377 103.051 681.162 100.194C680.461 99.403 679.634 98.81 678.646 98.5585C670.129 96.4202 660.013 98.0913 644.308 105.512C628.334 113.059 624.488 124.991 605.675 115.808L601.578 134.083L602.135 134.927Z" fill="#B3937C"/>
<path d="M680.465 107.794C680.788 106.087 681.022 104.56 681.13 103.176L671.48 98.9537L672.037 97.6959C668.713 97.642 665.048 98.1272 660.915 99.1873L665.551 101.236L660.771 112.071L649.936 107.291L652.254 102.062C650.331 102.817 643.054 105.908 639.981 107.812L644.024 109.591L639.245 120.426L628.463 115.539C626.433 116.815 624.42 117.857 622.246 118.486L611.375 143.067C612.687 143.732 614.124 144.253 615.58 144.666L620 134.676L630.835 139.455C630.835 139.455 628.589 144.469 627.403 147.146C628.104 147.182 631.195 147.2 632.237 147.164L634.95 141.27L644.527 145.421C647.402 144.594 650.008 143.48 652.595 142.133L656.513 132.933L662.658 135.682C663.898 134.676 665.12 133.562 666.288 132.376L658.327 128.836L663.107 118.001L674.032 122.834C674.913 121.522 675.703 120.229 676.404 118.971L664.922 113.886L669.702 103.051L680.465 107.794ZM632.614 135.358L621.779 130.579L626.559 119.744L637.394 124.523L632.614 135.358ZM647.564 141.971L636.729 137.191L641.509 126.356L652.344 131.136L647.564 141.971ZM654.159 127.021L643.323 122.241L648.103 111.406L658.938 116.186L654.159 127.021Z" fill="#694D42"/>
<path d="M489.814 14.7883C487.964 14.5008 486.113 14.2851 484.244 14.1773C483.471 14.1234 482.627 14.1054 481.962 14.5008C481.405 14.8242 481.046 15.3992 480.758 15.9742C479.957 17.5459 479.497 19.2689 479.407 21.0307C479.317 22.7925 479.6 24.5534 480.237 26.1984C480.56 27.007 481.189 27.9054 482.034 27.7617C482.375 27.7078 482.645 27.4922 482.914 27.2765C485.57 25.1989 488.024 22.8768 490.246 20.3406C490.623 19.9093 490.982 19.2086 490.533 18.8312" fill="#825B4E"/>
<path d="M561.771 183.371C546.228 190.9 535.932 199.687 525.151 210.468C524.342 211.277 520.964 214.96 523.048 216.074C525.133 217.188 530.29 213.415 531.763 214.403C533.524 215.571 532.23 217.637 534.081 218.967C535.932 220.297 540.909 216.416 543.425 217.548C545.94 218.68 544.826 220.62 546.3 222.345C548.222 224.609 552.499 222.507 553.649 221.591C560.423 216.236 577.296 200.154 580.279 196.686C584.232 192.086 586.747 185.905 583.226 181.808M509.392 178.268C500.184 181.19 491.311 185.081 482.924 189.876C481.181 190.864 479.456 191.924 478.018 193.308C477.39 193.901 476.707 194.961 477.336 195.554C478.773 196.866 481.522 194.727 483.607 196.362C484.326 196.937 483.912 199.417 484.451 200.172C485.026 200.962 486.122 201.25 487.111 201.178C488.099 201.106 489.033 200.729 489.986 200.441C492.088 199.812 494.244 199.417 495.628 201.07C496.49 202.112 496.436 203.083 496.993 204.197C497.371 204.97 498 205.58 499.563 205.562C501.935 205.545 504.109 204.466 506.068 203.155C514.908 197.225 523.228 190.612 531.547 184.018" fill="#694D42"/>
<path d="M543.6 22.2451C549.817 23.9881 551.363 22.2092 556.034 22.5686C562.018 23.0178 561.299 28.6779 560.419 31.8045C559.287 35.8115 557.059 39.0639 553.878 41.7412C553.339 42.1904 552.728 42.6576 552.009 42.7115C551.165 42.7834 550.392 42.2623 549.745 41.7232C545.505 38.2553 542.809 32.9545 542.504 27.492" fill="#825B4E"/>
<path d="M480.464 73.8876C480.464 73.8876 469.449 75.1634 465.586 86.9868C459.926 104.273 474.966 114.299 474.966 114.299C474.966 114.299 470.833 149.716 492.413 169.122C513.994 188.528 521.038 189.247 546.266 193.865C571.494 198.483 595.015 182.221 601.088 175.681C607.162 169.14 616.613 155.502 618.303 138.539C619.992 121.595 604.97 91.9282 591.385 76.4392C577.801 60.9501 549.895 36.9438 549.895 36.9438L509.645 74.4626L480.464 73.8876Z" fill="#B38A6D"/>
<path d="M545.362 23.7723C535.318 9.68481 524.159 6.89966 511.886 6.89966C498.643 6.89966 486.083 16.6208 480.297 24.3114C475.625 30.5465 469.804 40.6809 468.977 52.3426C468.33 61.5067 471.241 70.0778 480.297 76.4207C489.354 82.7637 525.345 90.3286 540.115 80.1762C553.053 71.2817 557.437 59.3325 556.143 49.3059C555.227 42.1004 553.143 34.6793 545.362 23.7723Z" fill="#B38A6D"/>
<path d="M525.636 37.1924C527.933 36.4565 529.021 33.4466 528.067 30.4697C527.113 27.4928 524.478 25.6761 522.182 26.412C519.885 27.1479 518.797 30.1578 519.751 33.1347C520.705 36.1116 523.34 37.9283 525.636 37.1924Z" fill="#212121"/>
<path d="M486.672 58.848C485.738 65.3886 488.631 75.2355 491.056 75.0918C493.069 74.966 493.536 70.9769 493.536 70.9769C493.536 70.9769 495.261 76.0801 498.424 75.7566C501.442 75.4332 501.299 64.634 502.071 59.3511L491.829 55.1644L486.672 58.848Z" fill="#FFECB3"/>
<path d="M479.884 28.5883C480.477 26.7555 482.148 24.3656 484.861 24.4375C487.754 24.5273 487.251 28.6781 486.263 30.8703C485.257 33.0625 482.939 35.1828 480.765 33.8172C479.273 32.8828 479.471 29.882 479.884 28.5883Z" fill="#212121"/>
<path d="M533.251 121.091C510.251 113.329 509.28 90.4185 502.201 85.0279C499.793 83.1771 497.475 82.7279 495.031 81.4521C492.785 80.2841 490.197 79.0982 487.844 80.0326C489.461 81.1287 490.916 82.4943 492.084 84.0756C489.748 84.3091 486.28 84.5966 485.13 86.0701C484.933 86.3216 485.202 86.717 485.49 86.8607C485.777 87.0045 489.622 87.7052 491.15 89.2505C489.928 90.2927 488.526 91.1552 487.466 92.3591C486.855 93.042 487.412 93.4732 487.664 93.5451C489.317 93.9943 491.168 93.7248 492.713 94.4795C494.258 95.2342 495.39 96.6537 496.756 97.6599C498.434 98.9072 500.469 99.5813 502.56 99.5826C506.01 106.788 510.502 112.79 516.342 118.216C521.733 123.229 528.381 126.805 535.766 128.153C559 132.394 569.314 108.747 569.314 108.747C569.314 108.747 552.801 127.686 533.251 121.091Z" fill="#825B4E"/>
<path d="M497.775 33.1522C496.876 31.9663 495.169 31.8046 494.073 32.7928C491.324 35.2905 488.664 37.5905 487.514 39.4233C486.76 40.6631 486.095 43.1608 487.55 44.9397C489.006 46.7186 493.588 50.4381 493.588 50.4381C493.588 50.4381 499.392 47.7249 501.189 46.4491C503.363 44.8858 503.848 41.5616 501.997 38.8124C501.261 37.7163 499.212 35.0569 497.775 33.1522Z" fill="#212121"/>
<path d="M509.779 58.2011C511.289 55.8472 509.599 54.7331 508.611 55.8831C507.497 57.1589 504.55 59.1894 500.507 57.7698C498.261 56.9792 496.752 56.2605 495.889 53.6909C495.278 51.8581 495.494 49.3964 495.512 47.4917C495.512 46.6292 491.667 46.5394 491.415 47.2581C490.894 48.7316 490.93 50.2589 490.876 51.8042C490.822 53.5113 490.589 55.5417 489.133 56.4402C484.389 59.4409 481.586 54.9488 481.029 54.4277C480.796 54.212 480.256 55.5956 480.724 57.087C482.952 64.2925 490.912 62.9808 493.194 59.5308C493.607 62.4058 503.76 67.5988 509.779 58.2011Z" fill="#212121"/>
<path d="M472.82 112.575C473.126 112.844 473.521 113.257 473.809 113.491C474.563 114.12 475.677 114.066 476.378 113.365C477.187 112.521 478.157 111.029 478.768 109.035C479.954 105.243 479.523 99.9425 477.223 96.1331L475.066 98.3253C476.72 103.572 476.073 108.046 474.402 110.85C473.737 111.946 472.856 112.485 472.82 112.575ZM528.847 77.1581L527.535 83.2136C533.159 82.5308 539.125 71.6417 539.125 71.6417L539.197 78.919C546.384 75.0198 550.104 58.2729 550.104 58.2729C550.751 66.3948 551.47 84.4714 527.176 87.6159C518.371 88.7659 509.153 85.1362 509.153 85.1362C509.153 85.1362 522.845 84.2378 528.847 77.1581Z" fill="#825B4E"/>
<path d="M471.063 84.4715C474.118 79.6918 479.509 78.2004 483.893 78.8832C484.091 78.9191 484.63 79.1168 484.773 79.2426C485.061 79.5121 484.935 80.0332 484.612 80.2848C484.306 80.5363 483.875 80.5902 483.498 80.698C481.305 81.2371 479.329 82.9082 478.951 85.1363C480.515 84.4894 482.384 84.6332 483.839 85.4777C484.234 85.7113 484.666 86.1785 484.432 86.5918C484.306 86.8254 484.001 86.9152 483.731 87.0051C481.826 87.616 480.533 89.6105 480.227 91.5871C481.251 91.3715 482.312 91.1379 483.354 91.3176C484.396 91.4973 485.78 92.3777 485.672 93.1863C485.546 94.0488 483.21 93.4738 482.15 95.3246C481.413 96.6183 481.018 98.1816 479.868 99.116C478.808 99.9785 477.28 100.158 475.969 99.7629C474.657 99.3855 473.525 98.5051 472.626 97.4809C469.554 93.9769 468.889 88.5683 471.063 84.4715Z" fill="#825B4E"/>
</svg>
